<svg width="225" height="45" viewBox="0 0 225 45" fill="none" xmlns="http://www.w3.org/2000/svg">
<g clip-path="url(#clip0_68_1474)">
<rect width="225" height="45" fill="white"/>
<circle cx="22.5" cy="22.5" r="22.5" fill="white"/>
<circle cx="67.5" cy="22.5" r="22.5" fill="white"/>
<circle cx="112.5" cy="22.5" r="22.5" fill="white"/>
<circle cx="157.5" cy="22.5" r="22.5" fill="white"/>
<circle cx="202.5" cy="22.5" r="22.5" fill="white"/>
<g clip-path="url(#clip1_68_1474)">
<path d="M67 13.8008C69.6719 13.8008 69.9883 13.8125 71.0391 13.8594C72.0156 13.9023 72.543 14.0664 72.8945 14.2031C73.3594 14.3828 73.6953 14.6016 74.043 14.9492C74.3945 15.3008 74.6094 15.6328 74.7891 16.0977C74.9258 16.4492 75.0898 16.9805 75.1328 17.9531C75.1797 19.0078 75.1914 19.3242 75.1914 21.9922C75.1914 24.6641 75.1797 24.9805 75.1328 26.0313C75.0898 27.0078 74.9258 27.5352 74.7891 27.8867C74.6094 28.3516 74.3906 28.6875 74.043 29.0352C73.6914 29.3867 73.3594 29.6016 72.8945 29.7813C72.543 29.918 72.0117 30.082 71.0391 30.125C69.9844 30.1719 69.668 30.1836 67 30.1836C64.3281 30.1836 64.0117 30.1719 62.9609 30.125C61.9844 30.082 61.457 29.918 61.1055 29.7813C60.6406 29.6016 60.3047 29.3828 59.957 29.0352C59.6055 28.6836 59.3906 28.3516 59.2109 27.8867C59.0742 27.5352 58.9102 27.0039 58.8672 26.0313C58.8203 24.9766 58.8086 24.6602 58.8086 21.9922C58.8086 19.3203 58.8203 19.0039 58.8672 17.9531C58.9102 16.9766 59.0742 16.4492 59.2109 16.0977C59.3906 15.6328 59.6094 15.2969 59.957 14.9492C60.3086 14.5977 60.6406 14.3828 61.1055 14.2031C61.457 14.0664 61.9883 13.9023 62.9609 13.8594C64.0117 13.8125 64.3281 13.8008 67 13.8008ZM67 12C64.2852 12 63.9453 12.0117 62.8789 12.0586C61.8164 12.1055 61.0859 12.2773 60.4531 12.5234C59.793 12.7812 59.2344 13.1211 58.6797 13.6797C58.1211 14.2344 57.7813 14.793 57.5234 15.4492C57.2773 16.0859 57.1055 16.8125 57.0586 17.875C57.0117 18.9453 57 19.2852 57 22C57 24.7148 57.0117 25.0547 57.0586 26.1211C57.1055 27.1836 57.2773 27.9141 57.5234 28.5469C57.7813 29.207 58.1211 29.7656 58.6797 30.3203C59.2344 30.875 59.793 31.2188 60.4492 31.4727C61.0859 31.7188 61.8125 31.8906 62.875 31.9375C63.9414 31.9844 64.2813 31.9961 66.9961 31.9961C69.7109 31.9961 70.0508 31.9844 71.1172 31.9375C72.1797 31.8906 72.9102 31.7188 73.543 31.4727C74.1992 31.2188 74.7578 30.875 75.3125 30.3203C75.8672 29.7656 76.2109 29.207 76.4648 28.5508C76.7109 27.9141 76.8828 27.1875 76.9297 26.125C76.9766 25.0586 76.9883 24.7188 76.9883 22.0039C76.9883 19.2891 76.9766 18.9492 76.9297 17.8828C76.8828 16.8203 76.7109 16.0898 76.4648 15.457C76.2188 14.793 75.8789 14.2344 75.3203 13.6797C74.7656 13.125 74.207 12.7813 73.5508 12.5273C72.9141 12.2812 72.1875 12.1094 71.125 12.0625C70.0547 12.0117 69.7148 12 67 12Z" fill="black"/>
<path d="M66.9961 16.8633C64.1602 16.8633 61.8594 19.1641 61.8594 22C61.8594 24.8359 64.1602 27.1367 66.9961 27.1367C69.832 27.1367 72.1328 24.8359 72.1328 22C72.1328 19.1641 69.832 16.8633 66.9961 16.8633ZM66.9961 25.332C65.1563 25.332 63.6641 23.8398 63.6641 22C63.6641 20.1602 65.1563 18.668 66.9961 18.668C68.8359 18.668 70.3281 20.1602 70.3281 22C70.3281 23.8398 68.8359 25.332 66.9961 25.332Z" fill="black"/>
<path d="M73.5391 16.6602C73.5391 17.3242 73 17.8594 72.3398 17.8594C71.6758 17.8594 71.1406 17.3203 71.1406 16.6602C71.1406 15.9961 71.6797 15.4609 72.3398 15.4609C73 15.4609 73.5391 16 73.5391 16.6602Z" fill="black"/>
</g>
<g clip-path="url(#clip2_68_1474)">
<path d="M32 22C32 16.4771 27.5229 12 22 12C16.4771 12 12 16.4771 12 22C12 26.9912 15.6568 31.1283 20.4375 31.8785V24.8906H17.8984V22H20.4375V19.7969C20.4375 17.2906 21.9305 15.9063 24.2146 15.9063C25.3084 15.9063 26.4531 16.1016 26.4531 16.1016V18.5625H25.1922C23.95 18.5625 23.5625 19.3334 23.5625 20.125V22H26.3359L25.8926 24.8906H23.5625V31.8785C28.3432 31.1283 32 26.9912 32 22Z" fill="black"/>
</g>
<g clip-path="url(#clip3_68_1474)">
<path d="M122.605 18.1546C122.492 17.7291 122.269 17.3408 121.959 17.0285C121.649 16.7162 121.262 16.4908 120.837 16.375C119.273 15.9546 113.023 15.9546 113.023 15.9546C113.023 15.9546 106.773 15.9546 105.21 16.375C104.785 16.4908 104.398 16.7162 104.088 17.0285C103.778 17.3408 103.555 17.7291 103.442 18.1546C103.023 19.725 103.023 23 103.023 23C103.023 23 103.023 26.275 103.442 27.8455C103.555 28.271 103.778 28.6593 104.088 28.9716C104.398 29.2839 104.785 29.5092 105.21 29.625C106.773 30.0455 113.023 30.0455 113.023 30.0455C113.023 30.0455 119.273 30.0455 120.837 29.625C121.262 29.5092 121.649 29.2839 121.959 28.9716C122.269 28.6593 122.492 28.271 122.605 27.8455C123.023 26.275 123.023 23 123.023 23C123.023 23 123.023 19.725 122.605 18.1546Z" fill="black"/>
<path d="M110.977 25.9739V20.0261L116.204 23L110.977 25.9739Z" fill="#FEFEFE"/>
</g>
<g clip-path="url(#clip4_68_1474)">
<path fill-rule="evenodd" clip-rule="evenodd" d="M156.996 12.4166C154.622 12.4179 152.326 13.2587 150.519 14.7887C148.711 16.3188 147.509 18.4383 147.129 20.7683C146.749 23.0983 147.215 25.4868 148.443 27.5068C149.671 29.5267 151.582 31.0464 153.834 31.7941C154.33 31.8863 154.518 31.5784 154.518 31.3166C154.518 31.0548 154.508 30.2958 154.504 29.466C151.722 30.0669 151.135 28.292 151.135 28.292C150.681 27.1395 150.025 26.8365 150.025 26.8365C149.118 26.2208 150.093 26.2323 150.093 26.2323C151.098 26.3031 151.626 27.258 151.626 27.258C152.517 28.7777 153.966 28.3381 154.536 28.0813C154.625 27.4375 154.885 26.9995 155.172 26.7509C152.949 26.5007 150.615 25.6478 150.615 21.8378C150.601 20.8497 150.97 19.8942 151.645 19.1689C151.542 18.9186 151.199 17.9077 151.742 16.5345C151.742 16.5345 152.582 16.2678 154.493 17.5537C156.132 17.108 157.861 17.108 159.5 17.5537C161.409 16.2678 162.247 16.5345 162.247 16.5345C162.792 17.9044 162.449 18.9153 162.347 19.1689C163.024 19.8943 163.393 20.8515 163.378 21.8411C163.378 25.6593 161.039 26.5007 158.813 26.746C159.171 27.0555 159.49 27.6598 159.49 28.5884C159.49 29.9188 159.479 30.989 159.479 31.3166C159.479 31.5817 159.659 31.8912 160.166 31.7941C162.418 31.0463 164.329 29.5264 165.557 27.5061C166.785 25.4858 167.251 23.0969 166.87 20.7667C166.489 18.4365 165.287 16.3169 163.479 14.7871C161.671 13.2573 159.374 12.4171 157 12.4166H156.996Z" fill="black"/>
<path d="M150.784 26.6933C150.763 26.7427 150.683 26.7575 150.619 26.7229C150.554 26.6883 150.506 26.6241 150.529 26.5731C150.553 26.522 150.63 26.5089 150.695 26.5434C150.76 26.578 150.809 26.6439 150.784 26.6933Z" fill="black"/>
<path d="M151.193 27.1428C151.159 27.16 151.12 27.1648 151.082 27.1563C151.045 27.1479 151.012 27.1268 150.988 27.0967C150.923 27.0275 150.91 26.932 150.96 26.8892C151.01 26.8464 151.099 26.8662 151.164 26.9353C151.228 27.0045 151.243 27.1 151.193 27.1428Z" fill="black"/>
<path d="M151.587 27.7142C151.525 27.757 151.421 27.7142 151.363 27.6286C151.347 27.6132 151.334 27.5948 151.326 27.5744C151.317 27.5541 151.312 27.5322 151.312 27.51C151.312 27.4879 151.317 27.466 151.326 27.4456C151.334 27.4253 151.347 27.4068 151.363 27.3915C151.424 27.3503 151.529 27.3915 151.587 27.4755C151.645 27.5594 151.646 27.6714 151.587 27.7142V27.7142Z" fill="black"/>
<path d="M152.126 28.2674C152.071 28.3283 151.96 28.3118 151.869 28.2295C151.778 28.1472 151.756 28.0352 151.811 27.9759C151.866 27.9167 151.977 27.9331 152.071 28.0138C152.165 28.0945 152.184 28.2081 152.126 28.2674V28.2674Z" fill="black"/>
<path d="M152.872 28.5901C152.848 28.6675 152.735 28.702 152.622 28.6691C152.51 28.6362 152.435 28.544 152.457 28.4649C152.478 28.3859 152.593 28.3497 152.707 28.3859C152.821 28.4221 152.894 28.5094 152.872 28.5901Z" fill="black"/>
<path d="M153.687 28.646C153.687 28.7267 153.594 28.7959 153.475 28.7975C153.356 28.7991 153.258 28.7333 153.258 28.6526C153.258 28.5719 153.351 28.5028 153.47 28.5011C153.589 28.4995 153.687 28.5637 153.687 28.646Z" fill="black"/>
<path d="M154.451 28.5193C154.466 28.6 154.383 28.684 154.264 28.7037C154.144 28.7235 154.04 28.6757 154.025 28.5967C154.01 28.5177 154.096 28.432 154.212 28.4106C154.328 28.3892 154.436 28.4386 154.451 28.5193Z" fill="black"/>
</g>
<path d="M200.239 20.39C199.669 20.39 199.219 20.89 199.219 21.5C199.219 22.11 199.679 22.61 200.239 22.61C200.809 22.61 201.259 22.11 201.259 21.5C201.269 20.89 200.809 20.39 200.239 20.39ZM203.889 20.39C203.319 20.39 202.869 20.89 202.869 21.5C202.869 22.11 203.329 22.61 203.889 22.61C204.459 22.61 204.909 22.11 204.909 21.5C204.909 20.89 204.459 20.39 203.889 20.39Z" fill="black"/>
<path d="M208.747 12H195.347C194.217 12 193.297 12.92 193.297 14.06V27.58C193.297 28.72 194.217 29.64 195.347 29.64H206.687L206.157 27.79L207.437 28.98L208.647 30.1L210.797 32V14.06C210.797 12.92 209.877 12 208.747 12ZM204.887 25.06C204.887 25.06 204.527 24.63 204.227 24.25C205.537 23.88 206.037 23.06 206.037 23.06C205.627 23.33 205.237 23.52 204.887 23.65C204.387 23.86 203.907 24 203.437 24.08C202.477 24.26 201.597 24.21 200.847 24.07C200.277 23.96 199.787 23.8 199.377 23.64C199.147 23.55 198.897 23.44 198.647 23.3C198.617 23.28 198.587 23.27 198.557 23.25C198.537 23.24 198.527 23.23 198.517 23.22C198.337 23.12 198.237 23.05 198.237 23.05C198.237 23.05 198.717 23.85 199.987 24.23C199.687 24.61 199.317 25.06 199.317 25.06C197.107 24.99 196.267 23.54 196.267 23.54C196.267 20.32 197.707 17.71 197.707 17.71C199.147 16.63 200.517 16.66 200.517 16.66L200.617 16.78C198.817 17.3 197.987 18.09 197.987 18.09C197.987 18.09 198.207 17.97 198.577 17.8C199.647 17.33 200.497 17.2 200.847 17.17C200.907 17.16 200.957 17.15 201.017 17.15C201.627 17.07 202.317 17.05 203.037 17.13C203.987 17.24 205.007 17.52 206.047 18.09C206.047 18.09 205.257 17.34 203.557 16.82L203.697 16.66C203.697 16.66 205.067 16.63 206.507 17.71C206.507 17.71 207.947 20.32 207.947 23.54C207.947 23.54 207.097 24.99 204.887 25.06V25.06Z" fill="black"/>
</g>
<defs>
<clipPath id="clip0_68_1474">
<rect width="225" height="45" fill="white"/>
</clipPath>
<clipPath id="clip1_68_1474">
<rect width="20" height="20" fill="white" transform="translate(57 12)"/>
</clipPath>
<clipPath id="clip2_68_1474">
<rect width="20" height="20" fill="white" transform="translate(12 12)"/>
</clipPath>
<clipPath id="clip3_68_1474">
<rect width="20" height="20" fill="white" transform="translate(103 13)"/>
</clipPath>
<clipPath id="clip4_68_1474">
<rect width="20" height="20" fill="white" transform="translate(147 12)"/>
</clipPath>
</defs>
</svg>
